<mxfile host="app.diagrams.net" modified="2023-12-01T03:43:23.800Z" agent="Mozilla/5.0 (Windows NT 10.0; Win64; x64) AppleWebKit/537.36 (KHTML, like Gecko) Chrome/118.0.0.0 Safari/537.36 OPR/104.0.0.0 (Edition Campaign 34)" etag="Mgs8rox4ByGeJVwTERmr" version="22.1.5" type="device">
  <diagram name="1 oldal" id="A_eEtt22oVTZcwIc8oif">
    <mxGraphModel dx="12890" dy="6300" grid="1" gridSize="10" guides="1" tooltips="1" connect="1" arrows="1" fold="1" page="0" pageScale="1" pageWidth="827" pageHeight="1169" background="#000000" math="0" shadow="0">
      <root>
        <mxCell id="0" />
        <mxCell id="1" parent="0" />
        <mxCell id="h31MPHbTt9oOIjLvigXA-21" value="" style="rounded=0;whiteSpace=wrap;html=1;fillColor=#000000;" vertex="1" parent="1">
          <mxGeometry x="-2490" y="-520" width="8730" height="2420" as="geometry" />
        </mxCell>
        <mxCell id="xbEn734_akfBzVi41Q-D-3" value="Képregény kiadó" style="ellipse;whiteSpace=wrap;html=1;fillColor=#000000;strokeColor=#FFFFFF;fontColor=#FFFFFF;fontSize=20;strokeWidth=2;" parent="1" vertex="1">
          <mxGeometry x="1670" y="-170" width="210" height="80" as="geometry" />
        </mxCell>
        <mxCell id="xbEn734_akfBzVi41Q-D-4" value="Author" style="ellipse;whiteSpace=wrap;html=1;fillColor=#000000;strokeColor=#FFFFFF;fontColor=#FFFFFF;fontSize=20;strokeWidth=2;" parent="1" vertex="1">
          <mxGeometry x="-510" y="340" width="210" height="80" as="geometry" />
        </mxCell>
        <mxCell id="xbEn734_akfBzVi41Q-D-5" value="Series" style="ellipse;whiteSpace=wrap;html=1;fillColor=#000000;strokeColor=#FFFFFF;fontColor=#FFFFFF;fontSize=20;strokeWidth=2;" parent="1" vertex="1">
          <mxGeometry x="-1710" y="340" width="210" height="80" as="geometry" />
        </mxCell>
        <mxCell id="xbEn734_akfBzVi41Q-D-16" value="AuthorName" style="ellipse;whiteSpace=wrap;html=1;fillColor=#000000;strokeColor=#FFFFFF;fontColor=#FFFFFF;fontSize=20;strokeWidth=2;" parent="1" vertex="1">
          <mxGeometry x="-590" y="695" width="170" height="80" as="geometry" />
        </mxCell>
        <mxCell id="xbEn734_akfBzVi41Q-D-19" value="AuthorGender" style="ellipse;whiteSpace=wrap;html=1;fillColor=#000000;strokeColor=#FFFFFF;fontColor=#FFFFFF;fontSize=20;strokeWidth=2;" parent="1" vertex="1">
          <mxGeometry x="-400" y="695" width="170" height="80" as="geometry" />
        </mxCell>
        <mxCell id="xbEn734_akfBzVi41Q-D-20" value="AuthorAge" style="ellipse;whiteSpace=wrap;html=1;fillColor=#000000;strokeColor=#FFFFFF;fontColor=#FFFFFF;fontSize=20;strokeWidth=2;" parent="1" vertex="1">
          <mxGeometry x="-210" y="695" width="170" height="80" as="geometry" />
        </mxCell>
        <mxCell id="xbEn734_akfBzVi41Q-D-21" value="" style="endArrow=none;html=1;rounded=0;entryX=0.5;entryY=1;entryDx=0;entryDy=0;exitX=0.5;exitY=0;exitDx=0;exitDy=0;labelBackgroundColor=#FFFFFF;strokeColor=#FFFFFF;strokeWidth=2;" parent="1" source="xbEn734_akfBzVi41Q-D-20" target="xbEn734_akfBzVi41Q-D-4" edge="1">
          <mxGeometry width="50" height="50" relative="1" as="geometry">
            <mxPoint x="445" y="970" as="sourcePoint" />
            <mxPoint x="495" y="920" as="targetPoint" />
          </mxGeometry>
        </mxCell>
        <mxCell id="xbEn734_akfBzVi41Q-D-22" value="" style="endArrow=none;html=1;rounded=0;exitX=0.5;exitY=0;exitDx=0;exitDy=0;labelBackgroundColor=#FFFFFF;strokeColor=#FFFFFF;entryX=0.5;entryY=1;entryDx=0;entryDy=0;strokeWidth=2;" parent="1" source="xbEn734_akfBzVi41Q-D-19" target="xbEn734_akfBzVi41Q-D-4" edge="1">
          <mxGeometry width="50" height="50" relative="1" as="geometry">
            <mxPoint x="-90" y="710" as="sourcePoint" />
            <mxPoint x="-465" y="590" as="targetPoint" />
          </mxGeometry>
        </mxCell>
        <mxCell id="xbEn734_akfBzVi41Q-D-23" value="" style="endArrow=none;html=1;rounded=0;labelBackgroundColor=#FFFFFF;strokeColor=#FFFFFF;entryX=0.5;entryY=1;entryDx=0;entryDy=0;exitX=0.5;exitY=0;exitDx=0;exitDy=0;strokeWidth=2;" parent="1" source="xbEn734_akfBzVi41Q-D-16" target="xbEn734_akfBzVi41Q-D-4" edge="1">
          <mxGeometry width="50" height="50" relative="1" as="geometry">
            <mxPoint x="-445" y="690" as="sourcePoint" />
            <mxPoint x="-435" y="510" as="targetPoint" />
          </mxGeometry>
        </mxCell>
        <mxCell id="xbEn734_akfBzVi41Q-D-25" value="" style="endArrow=none;html=1;rounded=0;labelBackgroundColor=#FFFFFF;strokeColor=#FFFFFF;exitX=0.5;exitY=0;exitDx=0;exitDy=0;strokeWidth=2;entryX=0.5;entryY=1;entryDx=0;entryDy=0;" parent="1" source="xbEn734_akfBzVi41Q-D-26" target="xbEn734_akfBzVi41Q-D-4" edge="1">
          <mxGeometry width="50" height="50" relative="1" as="geometry">
            <mxPoint x="-695" y="700" as="sourcePoint" />
            <mxPoint x="-465" y="490" as="targetPoint" />
          </mxGeometry>
        </mxCell>
        <mxCell id="xbEn734_akfBzVi41Q-D-26" value="AuthorID" style="rhombus;whiteSpace=wrap;html=1;strokeWidth=2;strokeColor=#FFFFFF;fillColor=#000000;fontSize=20;fontColor=#FFFFFF;" parent="1" vertex="1">
          <mxGeometry x="-770" y="680" width="160" height="110" as="geometry" />
        </mxCell>
        <mxCell id="xbEn734_akfBzVi41Q-D-27" value="SeriesName" style="ellipse;whiteSpace=wrap;html=1;fillColor=#000000;strokeColor=#FFFFFF;fontColor=#FFFFFF;fontSize=20;strokeWidth=2;" parent="1" vertex="1">
          <mxGeometry x="-1970" y="695" width="170" height="80" as="geometry" />
        </mxCell>
        <mxCell id="xbEn734_akfBzVi41Q-D-28" value="Ranking" style="ellipse;whiteSpace=wrap;html=1;fillColor=#000000;strokeColor=#FFFFFF;fontColor=#FFFFFF;fontSize=20;strokeWidth=2;" parent="1" vertex="1">
          <mxGeometry x="-1780" y="695" width="170" height="80" as="geometry" />
        </mxCell>
        <mxCell id="xbEn734_akfBzVi41Q-D-29" value="Genre" style="ellipse;whiteSpace=wrap;html=1;fillColor=#000000;strokeColor=#FFFFFF;fontColor=#FFFFFF;fontSize=20;strokeWidth=2;" parent="1" vertex="1">
          <mxGeometry x="-1590" y="695" width="170" height="80" as="geometry" />
        </mxCell>
        <mxCell id="xbEn734_akfBzVi41Q-D-30" value="NumOfReaders" style="ellipse;whiteSpace=wrap;html=1;fillColor=#000000;strokeColor=#FFFFFF;fontColor=#FFFFFF;fontSize=20;strokeWidth=2;" parent="1" vertex="1">
          <mxGeometry x="-1400" y="695" width="170" height="80" as="geometry" />
        </mxCell>
        <mxCell id="xbEn734_akfBzVi41Q-D-31" value="SeriesID" style="rhombus;whiteSpace=wrap;html=1;strokeWidth=2;strokeColor=#FFFFFF;fillColor=#000000;fontSize=20;fontColor=#FFFFFF;" parent="1" vertex="1">
          <mxGeometry x="-2160" y="680" width="160" height="110" as="geometry" />
        </mxCell>
        <mxCell id="xbEn734_akfBzVi41Q-D-32" value="" style="endArrow=none;html=1;rounded=0;entryX=0.5;entryY=1;entryDx=0;entryDy=0;exitX=0.5;exitY=0;exitDx=0;exitDy=0;labelBackgroundColor=#FFFFFF;strokeColor=#FFFFFF;strokeWidth=2;" parent="1" source="xbEn734_akfBzVi41Q-D-31" target="xbEn734_akfBzVi41Q-D-5" edge="1">
          <mxGeometry width="50" height="50" relative="1" as="geometry">
            <mxPoint x="-1927.5" y="640" as="sourcePoint" />
            <mxPoint x="-2212.5" y="360" as="targetPoint" />
          </mxGeometry>
        </mxCell>
        <mxCell id="xbEn734_akfBzVi41Q-D-33" value="" style="endArrow=none;html=1;rounded=0;labelBackgroundColor=#FFFFFF;strokeColor=#FFFFFF;strokeWidth=2;exitX=0.5;exitY=0;exitDx=0;exitDy=0;entryX=0.5;entryY=1;entryDx=0;entryDy=0;" parent="1" source="xbEn734_akfBzVi41Q-D-27" target="xbEn734_akfBzVi41Q-D-5" edge="1">
          <mxGeometry width="50" height="50" relative="1" as="geometry">
            <mxPoint x="-1880" y="680" as="sourcePoint" />
            <mxPoint x="-1750" y="490" as="targetPoint" />
          </mxGeometry>
        </mxCell>
        <mxCell id="xbEn734_akfBzVi41Q-D-34" value="" style="endArrow=none;html=1;rounded=0;labelBackgroundColor=#FFFFFF;strokeColor=#FFFFFF;strokeWidth=2;exitX=0.5;exitY=0;exitDx=0;exitDy=0;entryX=0.5;entryY=1;entryDx=0;entryDy=0;" parent="1" source="xbEn734_akfBzVi41Q-D-28" target="xbEn734_akfBzVi41Q-D-5" edge="1">
          <mxGeometry width="50" height="50" relative="1" as="geometry">
            <mxPoint x="-1875" y="710" as="sourcePoint" />
            <mxPoint x="-1795" y="420" as="targetPoint" />
          </mxGeometry>
        </mxCell>
        <mxCell id="xbEn734_akfBzVi41Q-D-35" value="" style="endArrow=none;html=1;rounded=0;labelBackgroundColor=#FFFFFF;strokeColor=#FFFFFF;strokeWidth=2;exitX=0.5;exitY=0;exitDx=0;exitDy=0;entryX=0.5;entryY=1;entryDx=0;entryDy=0;" parent="1" source="xbEn734_akfBzVi41Q-D-29" target="xbEn734_akfBzVi41Q-D-5" edge="1">
          <mxGeometry width="50" height="50" relative="1" as="geometry">
            <mxPoint x="-1865" y="720" as="sourcePoint" />
            <mxPoint x="-1785" y="430" as="targetPoint" />
          </mxGeometry>
        </mxCell>
        <mxCell id="xbEn734_akfBzVi41Q-D-36" value="" style="endArrow=none;html=1;rounded=0;labelBackgroundColor=#FFFFFF;strokeColor=#FFFFFF;strokeWidth=2;exitX=0.5;exitY=0;exitDx=0;exitDy=0;entryX=0.5;entryY=1;entryDx=0;entryDy=0;" parent="1" source="xbEn734_akfBzVi41Q-D-30" target="xbEn734_akfBzVi41Q-D-5" edge="1">
          <mxGeometry width="50" height="50" relative="1" as="geometry">
            <mxPoint x="-1855" y="730" as="sourcePoint" />
            <mxPoint x="-1775" y="440" as="targetPoint" />
          </mxGeometry>
        </mxCell>
        <mxCell id="xbEn734_akfBzVi41Q-D-37" value="Magazine" style="ellipse;whiteSpace=wrap;html=1;fillColor=#000000;strokeColor=#FFFFFF;fontColor=#FFFFFF;fontSize=20;strokeWidth=2;" parent="1" vertex="1">
          <mxGeometry x="470" y="340" width="210" height="80" as="geometry" />
        </mxCell>
        <mxCell id="xbEn734_akfBzVi41Q-D-38" value="MagazineName" style="ellipse;whiteSpace=wrap;html=1;fillColor=#000000;strokeColor=#FFFFFF;fontColor=#FFFFFF;fontSize=20;strokeWidth=2;" parent="1" vertex="1">
          <mxGeometry x="230" y="695" width="170" height="80" as="geometry" />
        </mxCell>
        <mxCell id="xbEn734_akfBzVi41Q-D-39" value="Publishing Frequency" style="ellipse;whiteSpace=wrap;html=1;fillColor=#000000;strokeColor=#FFFFFF;fontColor=#FFFFFF;fontSize=20;strokeWidth=2;" parent="1" vertex="1">
          <mxGeometry x="420" y="695" width="170" height="80" as="geometry" />
        </mxCell>
        <mxCell id="xbEn734_akfBzVi41Q-D-40" value="Demographic" style="ellipse;whiteSpace=wrap;html=1;fillColor=#000000;strokeColor=#FFFFFF;fontColor=#FFFFFF;fontSize=20;strokeWidth=2;" parent="1" vertex="1">
          <mxGeometry x="610" y="695" width="170" height="80" as="geometry" />
        </mxCell>
        <mxCell id="xbEn734_akfBzVi41Q-D-41" value="MagazinePrice&amp;nbsp;" style="ellipse;whiteSpace=wrap;html=1;fillColor=#000000;strokeColor=#FFFFFF;fontColor=#FFFFFF;fontSize=20;strokeWidth=2;" parent="1" vertex="1">
          <mxGeometry x="800" y="695" width="170" height="80" as="geometry" />
        </mxCell>
        <mxCell id="xbEn734_akfBzVi41Q-D-42" value="MPublisher" style="rhombus;whiteSpace=wrap;html=1;strokeWidth=2;strokeColor=#FFFFFF;fillColor=#000000;fontSize=20;fontColor=#FFFFFF;" parent="1" vertex="1">
          <mxGeometry x="990" y="680" width="160" height="110" as="geometry" />
        </mxCell>
        <mxCell id="xbEn734_akfBzVi41Q-D-43" value="" style="endArrow=none;html=1;rounded=0;entryX=0.5;entryY=1;entryDx=0;entryDy=0;exitX=0.5;exitY=0;exitDx=0;exitDy=0;labelBackgroundColor=#FFFFFF;strokeColor=#FFFFFF;strokeWidth=2;" parent="1" source="xbEn734_akfBzVi41Q-D-42" target="xbEn734_akfBzVi41Q-D-37" edge="1">
          <mxGeometry width="50" height="50" relative="1" as="geometry">
            <mxPoint x="242.5" y="640" as="sourcePoint" />
            <mxPoint x="-42.5" y="360" as="targetPoint" />
          </mxGeometry>
        </mxCell>
        <mxCell id="xbEn734_akfBzVi41Q-D-44" value="" style="endArrow=none;html=1;rounded=0;labelBackgroundColor=#FFFFFF;strokeColor=#FFFFFF;strokeWidth=2;exitX=0.5;exitY=0;exitDx=0;exitDy=0;entryX=0.5;entryY=1;entryDx=0;entryDy=0;" parent="1" source="xbEn734_akfBzVi41Q-D-38" target="xbEn734_akfBzVi41Q-D-37" edge="1">
          <mxGeometry width="50" height="50" relative="1" as="geometry">
            <mxPoint x="290" y="680" as="sourcePoint" />
            <mxPoint x="420" y="490" as="targetPoint" />
          </mxGeometry>
        </mxCell>
        <mxCell id="xbEn734_akfBzVi41Q-D-45" value="" style="endArrow=none;html=1;rounded=0;labelBackgroundColor=#FFFFFF;strokeColor=#FFFFFF;strokeWidth=2;exitX=0.5;exitY=0;exitDx=0;exitDy=0;entryX=0.5;entryY=1;entryDx=0;entryDy=0;" parent="1" source="xbEn734_akfBzVi41Q-D-39" target="xbEn734_akfBzVi41Q-D-37" edge="1">
          <mxGeometry width="50" height="50" relative="1" as="geometry">
            <mxPoint x="295" y="710" as="sourcePoint" />
            <mxPoint x="375" y="420" as="targetPoint" />
          </mxGeometry>
        </mxCell>
        <mxCell id="xbEn734_akfBzVi41Q-D-46" value="" style="endArrow=none;html=1;rounded=0;labelBackgroundColor=#FFFFFF;strokeColor=#FFFFFF;strokeWidth=2;exitX=0.5;exitY=0;exitDx=0;exitDy=0;entryX=0.5;entryY=1;entryDx=0;entryDy=0;" parent="1" source="xbEn734_akfBzVi41Q-D-40" target="xbEn734_akfBzVi41Q-D-37" edge="1">
          <mxGeometry width="50" height="50" relative="1" as="geometry">
            <mxPoint x="305" y="720" as="sourcePoint" />
            <mxPoint x="385" y="430" as="targetPoint" />
          </mxGeometry>
        </mxCell>
        <mxCell id="xbEn734_akfBzVi41Q-D-47" value="" style="endArrow=none;html=1;rounded=0;labelBackgroundColor=#FFFFFF;strokeColor=#FFFFFF;strokeWidth=2;exitX=0.5;exitY=0;exitDx=0;exitDy=0;entryX=0.5;entryY=1;entryDx=0;entryDy=0;" parent="1" source="xbEn734_akfBzVi41Q-D-41" target="xbEn734_akfBzVi41Q-D-37" edge="1">
          <mxGeometry width="50" height="50" relative="1" as="geometry">
            <mxPoint x="315" y="730" as="sourcePoint" />
            <mxPoint x="395" y="440" as="targetPoint" />
          </mxGeometry>
        </mxCell>
        <mxCell id="xbEn734_akfBzVi41Q-D-48" value="Publisher" style="ellipse;whiteSpace=wrap;html=1;fillColor=#000000;strokeColor=#FFFFFF;fontColor=#FFFFFF;fontSize=20;strokeWidth=2;" parent="1" vertex="1">
          <mxGeometry x="1670" y="340" width="210" height="80" as="geometry" />
        </mxCell>
        <mxCell id="xbEn734_akfBzVi41Q-D-49" value="PublisherName" style="ellipse;whiteSpace=wrap;html=1;fillColor=#000000;strokeColor=#FFFFFF;fontColor=#FFFFFF;fontSize=20;strokeWidth=2;" parent="1" vertex="1">
          <mxGeometry x="1420" y="695" width="170" height="80" as="geometry" />
        </mxCell>
        <mxCell id="xbEn734_akfBzVi41Q-D-50" value="PhoneNumber" style="ellipse;whiteSpace=wrap;html=1;fillColor=#000000;strokeColor=#FFFFFF;fontColor=#FFFFFF;fontSize=20;strokeWidth=2;" parent="1" vertex="1">
          <mxGeometry x="1610" y="695" width="170" height="80" as="geometry" />
        </mxCell>
        <mxCell id="xbEn734_akfBzVi41Q-D-51" value="EmailAddress" style="ellipse;whiteSpace=wrap;html=1;fillColor=#000000;strokeColor=#FFFFFF;fontColor=#FFFFFF;fontSize=20;strokeWidth=2;" parent="1" vertex="1">
          <mxGeometry x="1990" y="695" width="170" height="80" as="geometry" />
        </mxCell>
        <mxCell id="xbEn734_akfBzVi41Q-D-52" value="HQAddress" style="ellipse;whiteSpace=wrap;html=1;fillColor=#000000;strokeColor=#FFFFFF;fontColor=#FFFFFF;fontSize=20;strokeWidth=2;" parent="1" vertex="1">
          <mxGeometry x="1800" y="695" width="170" height="80" as="geometry" />
        </mxCell>
        <mxCell id="xbEn734_akfBzVi41Q-D-53" value="PPresident" style="rhombus;whiteSpace=wrap;html=1;strokeWidth=2;strokeColor=#FFFFFF;fillColor=#000000;fontSize=20;fontColor=#FFFFFF;" parent="1" vertex="1">
          <mxGeometry x="2180" y="680" width="160" height="110" as="geometry" />
        </mxCell>
        <mxCell id="xbEn734_akfBzVi41Q-D-54" value="" style="endArrow=none;html=1;rounded=0;entryX=0.5;entryY=1;entryDx=0;entryDy=0;exitX=0.5;exitY=0;exitDx=0;exitDy=0;labelBackgroundColor=#FFFFFF;strokeColor=#FFFFFF;strokeWidth=2;" parent="1" source="xbEn734_akfBzVi41Q-D-53" target="xbEn734_akfBzVi41Q-D-48" edge="1">
          <mxGeometry width="50" height="50" relative="1" as="geometry">
            <mxPoint x="1452.5" y="640" as="sourcePoint" />
            <mxPoint x="1167.5" y="360" as="targetPoint" />
          </mxGeometry>
        </mxCell>
        <mxCell id="xbEn734_akfBzVi41Q-D-55" value="" style="endArrow=none;html=1;rounded=0;labelBackgroundColor=#FFFFFF;strokeColor=#FFFFFF;strokeWidth=2;exitX=0.5;exitY=0;exitDx=0;exitDy=0;entryX=0.5;entryY=1;entryDx=0;entryDy=0;" parent="1" source="xbEn734_akfBzVi41Q-D-49" target="xbEn734_akfBzVi41Q-D-48" edge="1">
          <mxGeometry width="50" height="50" relative="1" as="geometry">
            <mxPoint x="1500" y="680" as="sourcePoint" />
            <mxPoint x="1630" y="490" as="targetPoint" />
          </mxGeometry>
        </mxCell>
        <mxCell id="xbEn734_akfBzVi41Q-D-56" value="" style="endArrow=none;html=1;rounded=0;labelBackgroundColor=#FFFFFF;strokeColor=#FFFFFF;strokeWidth=2;exitX=0.5;exitY=0;exitDx=0;exitDy=0;entryX=0.5;entryY=1;entryDx=0;entryDy=0;" parent="1" source="xbEn734_akfBzVi41Q-D-50" target="xbEn734_akfBzVi41Q-D-48" edge="1">
          <mxGeometry width="50" height="50" relative="1" as="geometry">
            <mxPoint x="1505" y="710" as="sourcePoint" />
            <mxPoint x="1585" y="420" as="targetPoint" />
          </mxGeometry>
        </mxCell>
        <mxCell id="xbEn734_akfBzVi41Q-D-57" value="" style="endArrow=none;html=1;rounded=0;labelBackgroundColor=#FFFFFF;strokeColor=#FFFFFF;strokeWidth=2;exitX=0.5;exitY=0;exitDx=0;exitDy=0;entryX=0.5;entryY=1;entryDx=0;entryDy=0;" parent="1" source="xbEn734_akfBzVi41Q-D-51" target="xbEn734_akfBzVi41Q-D-48" edge="1">
          <mxGeometry width="50" height="50" relative="1" as="geometry">
            <mxPoint x="1515" y="720" as="sourcePoint" />
            <mxPoint x="1595" y="430" as="targetPoint" />
          </mxGeometry>
        </mxCell>
        <mxCell id="xbEn734_akfBzVi41Q-D-58" value="" style="endArrow=none;html=1;rounded=0;labelBackgroundColor=#FFFFFF;strokeColor=#FFFFFF;strokeWidth=2;exitX=0.5;exitY=0;exitDx=0;exitDy=0;entryX=0.5;entryY=1;entryDx=0;entryDy=0;" parent="1" source="xbEn734_akfBzVi41Q-D-52" target="xbEn734_akfBzVi41Q-D-48" edge="1">
          <mxGeometry width="50" height="50" relative="1" as="geometry">
            <mxPoint x="1525" y="730" as="sourcePoint" />
            <mxPoint x="1605" y="440" as="targetPoint" />
          </mxGeometry>
        </mxCell>
        <mxCell id="xbEn734_akfBzVi41Q-D-59" value="PCity" style="ellipse;whiteSpace=wrap;html=1;fillColor=#000000;strokeColor=#FFFFFF;fontColor=#FFFFFF;fontSize=20;strokeWidth=2;" parent="1" vertex="1">
          <mxGeometry x="1610" y="1100" width="170" height="80" as="geometry" />
        </mxCell>
        <mxCell id="xbEn734_akfBzVi41Q-D-60" value="PStreet" style="ellipse;whiteSpace=wrap;html=1;fillColor=#000000;strokeColor=#FFFFFF;fontColor=#FFFFFF;fontSize=20;strokeWidth=2;" parent="1" vertex="1">
          <mxGeometry x="1800" y="1100" width="170" height="80" as="geometry" />
        </mxCell>
        <mxCell id="xbEn734_akfBzVi41Q-D-61" value="PHouseNumber" style="ellipse;whiteSpace=wrap;html=1;fillColor=#000000;strokeColor=#FFFFFF;fontColor=#FFFFFF;fontSize=20;strokeWidth=2;" parent="1" vertex="1">
          <mxGeometry x="1990" y="1100" width="170" height="80" as="geometry" />
        </mxCell>
        <mxCell id="xbEn734_akfBzVi41Q-D-62" value="" style="endArrow=none;html=1;rounded=0;labelBackgroundColor=#FFFFFF;strokeColor=#FFFFFF;strokeWidth=2;exitX=0.5;exitY=0;exitDx=0;exitDy=0;entryX=0.5;entryY=1;entryDx=0;entryDy=0;" parent="1" source="xbEn734_akfBzVi41Q-D-59" target="xbEn734_akfBzVi41Q-D-52" edge="1">
          <mxGeometry width="50" height="50" relative="1" as="geometry">
            <mxPoint x="1705" y="710" as="sourcePoint" />
            <mxPoint x="1515" y="430" as="targetPoint" />
          </mxGeometry>
        </mxCell>
        <mxCell id="xbEn734_akfBzVi41Q-D-63" value="" style="endArrow=none;html=1;rounded=0;labelBackgroundColor=#FFFFFF;strokeColor=#FFFFFF;strokeWidth=2;exitX=0.5;exitY=0;exitDx=0;exitDy=0;entryX=0.5;entryY=1;entryDx=0;entryDy=0;" parent="1" source="xbEn734_akfBzVi41Q-D-60" target="xbEn734_akfBzVi41Q-D-52" edge="1">
          <mxGeometry width="50" height="50" relative="1" as="geometry">
            <mxPoint x="1705" y="940" as="sourcePoint" />
            <mxPoint x="1910" y="830" as="targetPoint" />
          </mxGeometry>
        </mxCell>
        <mxCell id="xbEn734_akfBzVi41Q-D-64" value="" style="endArrow=none;html=1;rounded=0;labelBackgroundColor=#FFFFFF;strokeColor=#FFFFFF;strokeWidth=2;exitX=0.5;exitY=0;exitDx=0;exitDy=0;entryX=0.5;entryY=1;entryDx=0;entryDy=0;" parent="1" source="xbEn734_akfBzVi41Q-D-61" target="xbEn734_akfBzVi41Q-D-52" edge="1">
          <mxGeometry width="50" height="50" relative="1" as="geometry">
            <mxPoint x="1895" y="940" as="sourcePoint" />
            <mxPoint x="1920" y="840" as="targetPoint" />
          </mxGeometry>
        </mxCell>
        <mxCell id="xbEn734_akfBzVi41Q-D-65" value="President" style="ellipse;whiteSpace=wrap;html=1;fillColor=#000000;strokeColor=#FFFFFF;fontColor=#FFFFFF;fontSize=20;strokeWidth=2;" parent="1" vertex="1">
          <mxGeometry x="2670" y="340" width="210" height="80" as="geometry" />
        </mxCell>
        <mxCell id="xbEn734_akfBzVi41Q-D-66" value="PresidentName" style="ellipse;whiteSpace=wrap;html=1;fillColor=#000000;strokeColor=#FFFFFF;fontColor=#FFFFFF;fontSize=20;strokeWidth=2;" parent="1" vertex="1">
          <mxGeometry x="2590" y="695" width="170" height="80" as="geometry" />
        </mxCell>
        <mxCell id="xbEn734_akfBzVi41Q-D-67" value="PresidentGender" style="ellipse;whiteSpace=wrap;html=1;fillColor=#000000;strokeColor=#FFFFFF;fontColor=#FFFFFF;fontSize=20;strokeWidth=2;" parent="1" vertex="1">
          <mxGeometry x="2780" y="695" width="170" height="80" as="geometry" />
        </mxCell>
        <mxCell id="xbEn734_akfBzVi41Q-D-68" value="&amp;nbsp;PresidentAge" style="ellipse;whiteSpace=wrap;html=1;fillColor=#000000;strokeColor=#FFFFFF;fontColor=#FFFFFF;fontSize=20;strokeWidth=2;" parent="1" vertex="1">
          <mxGeometry x="2970" y="695" width="170" height="80" as="geometry" />
        </mxCell>
        <mxCell id="xbEn734_akfBzVi41Q-D-72" value="" style="endArrow=none;html=1;rounded=0;labelBackgroundColor=#FFFFFF;strokeColor=#FFFFFF;strokeWidth=2;exitX=0.5;exitY=0;exitDx=0;exitDy=0;entryX=0.5;entryY=1;entryDx=0;entryDy=0;" parent="1" source="xbEn734_akfBzVi41Q-D-66" target="xbEn734_akfBzVi41Q-D-65" edge="1">
          <mxGeometry width="50" height="50" relative="1" as="geometry">
            <mxPoint x="2410" y="680" as="sourcePoint" />
            <mxPoint x="2540" y="490" as="targetPoint" />
          </mxGeometry>
        </mxCell>
        <mxCell id="xbEn734_akfBzVi41Q-D-73" value="" style="endArrow=none;html=1;rounded=0;labelBackgroundColor=#FFFFFF;strokeColor=#FFFFFF;strokeWidth=2;exitX=0.5;exitY=0;exitDx=0;exitDy=0;entryX=0.5;entryY=1;entryDx=0;entryDy=0;" parent="1" source="xbEn734_akfBzVi41Q-D-67" target="xbEn734_akfBzVi41Q-D-65" edge="1">
          <mxGeometry width="50" height="50" relative="1" as="geometry">
            <mxPoint x="2415" y="710" as="sourcePoint" />
            <mxPoint x="2495" y="420" as="targetPoint" />
          </mxGeometry>
        </mxCell>
        <mxCell id="xbEn734_akfBzVi41Q-D-74" value="" style="endArrow=none;html=1;rounded=0;labelBackgroundColor=#FFFFFF;strokeColor=#FFFFFF;strokeWidth=2;exitX=0.5;exitY=0;exitDx=0;exitDy=0;entryX=0.5;entryY=1;entryDx=0;entryDy=0;" parent="1" source="xbEn734_akfBzVi41Q-D-68" target="xbEn734_akfBzVi41Q-D-65" edge="1">
          <mxGeometry width="50" height="50" relative="1" as="geometry">
            <mxPoint x="2425" y="720" as="sourcePoint" />
            <mxPoint x="2505" y="430" as="targetPoint" />
          </mxGeometry>
        </mxCell>
        <mxCell id="xbEn734_akfBzVi41Q-D-76" value="Book" style="ellipse;whiteSpace=wrap;html=1;fillColor=#000000;strokeColor=#FFFFFF;fontColor=#FFFFFF;fontSize=20;strokeWidth=2;" parent="1" vertex="1">
          <mxGeometry x="3650" y="340" width="210" height="80" as="geometry" />
        </mxCell>
        <mxCell id="xbEn734_akfBzVi41Q-D-77" value="BookPrice" style="ellipse;whiteSpace=wrap;html=1;fillColor=#000000;strokeColor=#FFFFFF;fontColor=#FFFFFF;fontSize=20;strokeWidth=2;" parent="1" vertex="1">
          <mxGeometry x="3580" y="695" width="170" height="80" as="geometry" />
        </mxCell>
        <mxCell id="xbEn734_akfBzVi41Q-D-78" value="NumOfPages" style="ellipse;whiteSpace=wrap;html=1;fillColor=#000000;strokeColor=#FFFFFF;fontColor=#FFFFFF;fontSize=20;strokeWidth=2;" parent="1" vertex="1">
          <mxGeometry x="3770" y="695" width="170" height="80" as="geometry" />
        </mxCell>
        <mxCell id="xbEn734_akfBzVi41Q-D-79" value="NumOfChapters" style="ellipse;whiteSpace=wrap;html=1;fillColor=#000000;strokeColor=#FFFFFF;fontColor=#FFFFFF;fontSize=20;strokeWidth=2;" parent="1" vertex="1">
          <mxGeometry x="3960" y="695" width="170" height="80" as="geometry" />
        </mxCell>
        <mxCell id="xbEn734_akfBzVi41Q-D-80" value="VolumeNumber" style="ellipse;whiteSpace=wrap;html=1;fillColor=#000000;strokeColor=#FFFFFF;fontColor=#FFFFFF;fontSize=20;strokeWidth=2;" parent="1" vertex="1">
          <mxGeometry x="4150" y="695" width="170" height="80" as="geometry" />
        </mxCell>
        <mxCell id="xbEn734_akfBzVi41Q-D-81" value="BookID" style="rhombus;whiteSpace=wrap;html=1;strokeWidth=2;strokeColor=#FFFFFF;fillColor=#000000;fontSize=20;fontColor=#FFFFFF;" parent="1" vertex="1">
          <mxGeometry x="4340" y="680" width="160" height="110" as="geometry" />
        </mxCell>
        <mxCell id="xbEn734_akfBzVi41Q-D-82" value="" style="endArrow=none;html=1;rounded=0;entryX=0.5;entryY=1;entryDx=0;entryDy=0;exitX=0.5;exitY=0;exitDx=0;exitDy=0;labelBackgroundColor=#FFFFFF;strokeColor=#FFFFFF;strokeWidth=2;" parent="1" source="xbEn734_akfBzVi41Q-D-81" target="xbEn734_akfBzVi41Q-D-76" edge="1">
          <mxGeometry width="50" height="50" relative="1" as="geometry">
            <mxPoint x="3432.5" y="635" as="sourcePoint" />
            <mxPoint x="3147.5" y="355" as="targetPoint" />
          </mxGeometry>
        </mxCell>
        <mxCell id="xbEn734_akfBzVi41Q-D-83" value="" style="endArrow=none;html=1;rounded=0;labelBackgroundColor=#FFFFFF;strokeColor=#FFFFFF;strokeWidth=2;exitX=0.5;exitY=0;exitDx=0;exitDy=0;entryX=0.5;entryY=1;entryDx=0;entryDy=0;" parent="1" source="xbEn734_akfBzVi41Q-D-77" target="xbEn734_akfBzVi41Q-D-76" edge="1">
          <mxGeometry width="50" height="50" relative="1" as="geometry">
            <mxPoint x="3480" y="675" as="sourcePoint" />
            <mxPoint x="3610" y="485" as="targetPoint" />
          </mxGeometry>
        </mxCell>
        <mxCell id="xbEn734_akfBzVi41Q-D-84" value="" style="endArrow=none;html=1;rounded=0;labelBackgroundColor=#FFFFFF;strokeColor=#FFFFFF;strokeWidth=2;exitX=0.5;exitY=0;exitDx=0;exitDy=0;entryX=0.5;entryY=1;entryDx=0;entryDy=0;" parent="1" source="xbEn734_akfBzVi41Q-D-78" target="xbEn734_akfBzVi41Q-D-76" edge="1">
          <mxGeometry width="50" height="50" relative="1" as="geometry">
            <mxPoint x="3485" y="705" as="sourcePoint" />
            <mxPoint x="3565" y="415" as="targetPoint" />
          </mxGeometry>
        </mxCell>
        <mxCell id="xbEn734_akfBzVi41Q-D-85" value="" style="endArrow=none;html=1;rounded=0;labelBackgroundColor=#FFFFFF;strokeColor=#FFFFFF;strokeWidth=2;exitX=0.5;exitY=0;exitDx=0;exitDy=0;entryX=0.5;entryY=1;entryDx=0;entryDy=0;" parent="1" source="xbEn734_akfBzVi41Q-D-79" target="xbEn734_akfBzVi41Q-D-76" edge="1">
          <mxGeometry width="50" height="50" relative="1" as="geometry">
            <mxPoint x="3495" y="715" as="sourcePoint" />
            <mxPoint x="3575" y="425" as="targetPoint" />
          </mxGeometry>
        </mxCell>
        <mxCell id="xbEn734_akfBzVi41Q-D-86" value="" style="endArrow=none;html=1;rounded=0;labelBackgroundColor=#FFFFFF;strokeColor=#FFFFFF;strokeWidth=2;exitX=0.5;exitY=0;exitDx=0;exitDy=0;entryX=0.5;entryY=1;entryDx=0;entryDy=0;" parent="1" source="xbEn734_akfBzVi41Q-D-80" target="xbEn734_akfBzVi41Q-D-76" edge="1">
          <mxGeometry width="50" height="50" relative="1" as="geometry">
            <mxPoint x="3505" y="725" as="sourcePoint" />
            <mxPoint x="3585" y="435" as="targetPoint" />
          </mxGeometry>
        </mxCell>
        <mxCell id="xbEn734_akfBzVi41Q-D-87" value="BookName" style="ellipse;whiteSpace=wrap;html=1;fillColor=#000000;strokeColor=#FFFFFF;fontColor=#FFFFFF;fontSize=20;strokeWidth=2;" parent="1" vertex="1">
          <mxGeometry x="3390" y="695" width="170" height="80" as="geometry" />
        </mxCell>
        <mxCell id="xbEn734_akfBzVi41Q-D-88" value="" style="endArrow=none;html=1;rounded=0;labelBackgroundColor=#FFFFFF;strokeColor=#FFFFFF;strokeWidth=2;exitX=0.5;exitY=0;exitDx=0;exitDy=0;entryX=0.5;entryY=1;entryDx=0;entryDy=0;" parent="1" source="xbEn734_akfBzVi41Q-D-87" target="xbEn734_akfBzVi41Q-D-76" edge="1">
          <mxGeometry width="50" height="50" relative="1" as="geometry">
            <mxPoint x="3675" y="705" as="sourcePoint" />
            <mxPoint x="3580" y="530" as="targetPoint" />
          </mxGeometry>
        </mxCell>
        <mxCell id="xbEn734_akfBzVi41Q-D-89" value="Bookstore" style="ellipse;whiteSpace=wrap;html=1;fillColor=#000000;strokeColor=#FFFFFF;fontColor=#FFFFFF;fontSize=20;strokeWidth=2;" parent="1" vertex="1">
          <mxGeometry x="5340" y="340" width="210" height="80" as="geometry" />
        </mxCell>
        <mxCell id="xbEn734_akfBzVi41Q-D-94" value="BookstoreID" style="rhombus;whiteSpace=wrap;html=1;strokeWidth=2;strokeColor=#FFFFFF;fillColor=#000000;fontSize=20;fontColor=#FFFFFF;" parent="1" vertex="1">
          <mxGeometry x="5180" y="680" width="160" height="110" as="geometry" />
        </mxCell>
        <mxCell id="xbEn734_akfBzVi41Q-D-95" value="" style="endArrow=none;html=1;rounded=0;entryX=0.5;entryY=1;entryDx=0;entryDy=0;exitX=0.5;exitY=0;exitDx=0;exitDy=0;labelBackgroundColor=#FFFFFF;strokeColor=#FFFFFF;strokeWidth=2;" parent="1" source="xbEn734_akfBzVi41Q-D-94" target="xbEn734_akfBzVi41Q-D-89" edge="1">
          <mxGeometry width="50" height="50" relative="1" as="geometry">
            <mxPoint x="5332.5" y="635" as="sourcePoint" />
            <mxPoint x="5047.5" y="355" as="targetPoint" />
          </mxGeometry>
        </mxCell>
        <mxCell id="xbEn734_akfBzVi41Q-D-100" value="StoreAddress" style="ellipse;whiteSpace=wrap;html=1;fillColor=#000000;strokeColor=#FFFFFF;fontColor=#FFFFFF;fontSize=20;strokeWidth=2;" parent="1" vertex="1">
          <mxGeometry x="5550" y="695" width="170" height="80" as="geometry" />
        </mxCell>
        <mxCell id="xbEn734_akfBzVi41Q-D-101" value="" style="endArrow=none;html=1;rounded=0;labelBackgroundColor=#FFFFFF;strokeColor=#FFFFFF;strokeWidth=2;exitX=0.5;exitY=0;exitDx=0;exitDy=0;entryX=0.5;entryY=1;entryDx=0;entryDy=0;" parent="1" source="xbEn734_akfBzVi41Q-D-100" target="xbEn734_akfBzVi41Q-D-89" edge="1">
          <mxGeometry width="50" height="50" relative="1" as="geometry">
            <mxPoint x="5575" y="705" as="sourcePoint" />
            <mxPoint x="5480" y="530" as="targetPoint" />
          </mxGeometry>
        </mxCell>
        <mxCell id="xbEn734_akfBzVi41Q-D-102" value="SCity" style="ellipse;whiteSpace=wrap;html=1;fillColor=#000000;strokeColor=#FFFFFF;fontColor=#FFFFFF;fontSize=20;strokeWidth=2;" parent="1" vertex="1">
          <mxGeometry x="5360" y="1100" width="170" height="80" as="geometry" />
        </mxCell>
        <mxCell id="xbEn734_akfBzVi41Q-D-103" value="SStreet" style="ellipse;whiteSpace=wrap;html=1;fillColor=#000000;strokeColor=#FFFFFF;fontColor=#FFFFFF;fontSize=20;strokeWidth=2;" parent="1" vertex="1">
          <mxGeometry x="5550" y="1100" width="170" height="80" as="geometry" />
        </mxCell>
        <mxCell id="xbEn734_akfBzVi41Q-D-104" value="BookstoreName" style="ellipse;whiteSpace=wrap;html=1;fillColor=#000000;strokeColor=#FFFFFF;fontColor=#FFFFFF;fontSize=20;strokeWidth=2;" parent="1" vertex="1">
          <mxGeometry x="5360" y="695" width="170" height="80" as="geometry" />
        </mxCell>
        <mxCell id="xbEn734_akfBzVi41Q-D-105" value="" style="endArrow=none;html=1;rounded=0;labelBackgroundColor=#FFFFFF;strokeColor=#FFFFFF;strokeWidth=2;exitX=0.5;exitY=0;exitDx=0;exitDy=0;entryX=0.5;entryY=1;entryDx=0;entryDy=0;" parent="1" source="xbEn734_akfBzVi41Q-D-104" target="xbEn734_akfBzVi41Q-D-89" edge="1">
          <mxGeometry width="50" height="50" relative="1" as="geometry">
            <mxPoint x="5645" y="705" as="sourcePoint" />
            <mxPoint x="5380" y="530" as="targetPoint" />
          </mxGeometry>
        </mxCell>
        <mxCell id="xbEn734_akfBzVi41Q-D-106" value="" style="endArrow=none;html=1;rounded=0;labelBackgroundColor=#FFFFFF;strokeColor=#FFFFFF;strokeWidth=2;exitX=0.5;exitY=0;exitDx=0;exitDy=0;entryX=0.5;entryY=1;entryDx=0;entryDy=0;" parent="1" source="xbEn734_akfBzVi41Q-D-102" target="xbEn734_akfBzVi41Q-D-100" edge="1">
          <mxGeometry width="50" height="50" relative="1" as="geometry">
            <mxPoint x="5645" y="705" as="sourcePoint" />
            <mxPoint x="5600" y="820" as="targetPoint" />
          </mxGeometry>
        </mxCell>
        <mxCell id="xbEn734_akfBzVi41Q-D-107" value="" style="endArrow=none;html=1;rounded=0;labelBackgroundColor=#FFFFFF;strokeColor=#FFFFFF;strokeWidth=2;exitX=0.5;exitY=0;exitDx=0;exitDy=0;entryX=0.5;entryY=1;entryDx=0;entryDy=0;" parent="1" source="xbEn734_akfBzVi41Q-D-103" target="xbEn734_akfBzVi41Q-D-100" edge="1">
          <mxGeometry width="50" height="50" relative="1" as="geometry">
            <mxPoint x="5555" y="970" as="sourcePoint" />
            <mxPoint x="5610" y="830" as="targetPoint" />
          </mxGeometry>
        </mxCell>
        <mxCell id="xbEn734_akfBzVi41Q-D-108" value="" style="rounded=0;whiteSpace=wrap;html=1;strokeWidth=2;strokeColor=#FFFFFF;fillColor=#000000;" parent="1" vertex="1">
          <mxGeometry x="-1915" y="880" width="60" height="100" as="geometry" />
        </mxCell>
        <mxCell id="xbEn734_akfBzVi41Q-D-113" value="SAuthor" style="rhombus;whiteSpace=wrap;html=1;strokeWidth=2;strokeColor=#FFFFFF;fillColor=#000000;fontSize=20;fontColor=#FFFFFF;" parent="1" vertex="1">
          <mxGeometry x="-1030" y="680" width="160" height="110" as="geometry" />
        </mxCell>
        <mxCell id="xbEn734_akfBzVi41Q-D-114" value="" style="endArrow=none;html=1;rounded=0;labelBackgroundColor=#FFFFFF;strokeColor=#FFFFFF;strokeWidth=2;exitX=0.5;exitY=0;exitDx=0;exitDy=0;entryX=0.5;entryY=1;entryDx=0;entryDy=0;" parent="1" source="xbEn734_akfBzVi41Q-D-113" target="xbEn734_akfBzVi41Q-D-5" edge="1">
          <mxGeometry width="50" height="50" relative="1" as="geometry">
            <mxPoint x="-1305" y="710" as="sourcePoint" />
            <mxPoint x="-1510" y="450" as="targetPoint" />
          </mxGeometry>
        </mxCell>
        <mxCell id="xbEn734_akfBzVi41Q-D-115" value="MagazineID" style="rhombus;whiteSpace=wrap;html=1;strokeWidth=2;strokeColor=#FFFFFF;fillColor=#000000;fontSize=20;fontColor=#FFFFFF;" parent="1" vertex="1">
          <mxGeometry x="50" y="680" width="160" height="110" as="geometry" />
        </mxCell>
        <mxCell id="xbEn734_akfBzVi41Q-D-116" value="" style="endArrow=none;html=1;rounded=0;labelBackgroundColor=#FFFFFF;strokeColor=#FFFFFF;strokeWidth=2;exitX=0.5;exitY=0;exitDx=0;exitDy=0;entryX=0.5;entryY=1;entryDx=0;entryDy=0;" parent="1" source="xbEn734_akfBzVi41Q-D-115" target="xbEn734_akfBzVi41Q-D-37" edge="1">
          <mxGeometry width="50" height="50" relative="1" as="geometry">
            <mxPoint x="865" y="710" as="sourcePoint" />
            <mxPoint x="660" y="440" as="targetPoint" />
          </mxGeometry>
        </mxCell>
        <mxCell id="xbEn734_akfBzVi41Q-D-117" value="PublisherID" style="rhombus;whiteSpace=wrap;html=1;strokeWidth=2;strokeColor=#FFFFFF;fillColor=#000000;fontSize=20;fontColor=#FFFFFF;" parent="1" vertex="1">
          <mxGeometry x="1240" y="680" width="160" height="110" as="geometry" />
        </mxCell>
        <mxCell id="xbEn734_akfBzVi41Q-D-118" value="" style="endArrow=none;html=1;rounded=0;labelBackgroundColor=#FFFFFF;strokeColor=#FFFFFF;strokeWidth=2;exitX=0.5;exitY=0;exitDx=0;exitDy=0;entryX=0.5;entryY=1;entryDx=0;entryDy=0;" parent="1" source="xbEn734_akfBzVi41Q-D-117" target="xbEn734_akfBzVi41Q-D-48" edge="1">
          <mxGeometry width="50" height="50" relative="1" as="geometry">
            <mxPoint x="2075" y="710" as="sourcePoint" />
            <mxPoint x="1850" y="480" as="targetPoint" />
          </mxGeometry>
        </mxCell>
        <mxCell id="xbEn734_akfBzVi41Q-D-119" value="PresidentID" style="rhombus;whiteSpace=wrap;html=1;strokeWidth=2;strokeColor=#FFFFFF;fillColor=#000000;fontSize=20;fontColor=#FFFFFF;" parent="1" vertex="1">
          <mxGeometry x="2410" y="680" width="160" height="110" as="geometry" />
        </mxCell>
        <mxCell id="xbEn734_akfBzVi41Q-D-120" value="" style="endArrow=none;html=1;rounded=0;labelBackgroundColor=#FFFFFF;strokeColor=#FFFFFF;strokeWidth=2;exitX=0.5;exitY=0;exitDx=0;exitDy=0;entryX=0.5;entryY=1;entryDx=0;entryDy=0;" parent="1" source="xbEn734_akfBzVi41Q-D-119" target="xbEn734_akfBzVi41Q-D-65" edge="1">
          <mxGeometry width="50" height="50" relative="1" as="geometry">
            <mxPoint x="2885" y="705" as="sourcePoint" />
            <mxPoint x="2710" y="460" as="targetPoint" />
          </mxGeometry>
        </mxCell>
        <mxCell id="xbEn734_akfBzVi41Q-D-121" value="Selling" style="ellipse;whiteSpace=wrap;html=1;fillColor=#000000;strokeColor=#FFFFFF;fontColor=#FFFFFF;fontSize=20;strokeWidth=2;" parent="1" vertex="1">
          <mxGeometry x="4730" y="340" width="210" height="80" as="geometry" />
        </mxCell>
        <mxCell id="xbEn734_akfBzVi41Q-D-122" value="SBookID" style="rhombus;whiteSpace=wrap;html=1;strokeWidth=2;strokeColor=#FFFFFF;fillColor=#000000;fontSize=20;fontColor=#FFFFFF;" parent="1" vertex="1">
          <mxGeometry x="4570" y="680" width="160" height="110" as="geometry" />
        </mxCell>
        <mxCell id="xbEn734_akfBzVi41Q-D-123" value="" style="endArrow=none;html=1;rounded=0;entryX=0.5;entryY=1;entryDx=0;entryDy=0;exitX=0.5;exitY=0;exitDx=0;exitDy=0;labelBackgroundColor=#FFFFFF;strokeColor=#FFFFFF;strokeWidth=2;" parent="1" source="xbEn734_akfBzVi41Q-D-122" target="xbEn734_akfBzVi41Q-D-121" edge="1">
          <mxGeometry width="50" height="50" relative="1" as="geometry">
            <mxPoint x="4722.5" y="635" as="sourcePoint" />
            <mxPoint x="4437.5" y="355" as="targetPoint" />
          </mxGeometry>
        </mxCell>
        <mxCell id="xbEn734_akfBzVi41Q-D-125" value="" style="endArrow=none;html=1;rounded=0;labelBackgroundColor=#FFFFFF;strokeColor=#FFFFFF;strokeWidth=2;entryX=0.5;entryY=1;entryDx=0;entryDy=0;exitX=0.5;exitY=0;exitDx=0;exitDy=0;" parent="1" source="xbEn734_akfBzVi41Q-D-132" target="xbEn734_akfBzVi41Q-D-121" edge="1">
          <mxGeometry width="50" height="50" relative="1" as="geometry">
            <mxPoint x="5010" y="610" as="sourcePoint" />
            <mxPoint x="4870" y="530" as="targetPoint" />
          </mxGeometry>
        </mxCell>
        <mxCell id="xbEn734_akfBzVi41Q-D-128" value="NumOfSells" style="ellipse;whiteSpace=wrap;html=1;fillColor=#000000;strokeColor=#FFFFFF;fontColor=#FFFFFF;fontSize=20;strokeWidth=2;" parent="1" vertex="1">
          <mxGeometry x="4750" y="695" width="170" height="80" as="geometry" />
        </mxCell>
        <mxCell id="xbEn734_akfBzVi41Q-D-129" value="" style="endArrow=none;html=1;rounded=0;labelBackgroundColor=#FFFFFF;strokeColor=#FFFFFF;strokeWidth=2;exitX=0.5;exitY=0;exitDx=0;exitDy=0;entryX=0.5;entryY=1;entryDx=0;entryDy=0;" parent="1" source="xbEn734_akfBzVi41Q-D-128" target="xbEn734_akfBzVi41Q-D-121" edge="1">
          <mxGeometry width="50" height="50" relative="1" as="geometry">
            <mxPoint x="5035" y="705" as="sourcePoint" />
            <mxPoint x="4770" y="530" as="targetPoint" />
          </mxGeometry>
        </mxCell>
        <mxCell id="xbEn734_akfBzVi41Q-D-132" value="SBookstoreID" style="rhombus;whiteSpace=wrap;html=1;strokeWidth=2;strokeColor=#FFFFFF;fillColor=#000000;fontSize=20;fontColor=#FFFFFF;" parent="1" vertex="1">
          <mxGeometry x="4940" y="680" width="160" height="110" as="geometry" />
        </mxCell>
        <mxCell id="xbEn734_akfBzVi41Q-D-138" value="" style="endArrow=classic;dashed=1;html=1;rounded=0;entryX=0.5;entryY=1;entryDx=0;entryDy=0;strokeWidth=2;strokeColor=#FFFFFF;exitX=0.5;exitY=1;exitDx=0;exitDy=0;endFill=1;startArrow=none;startFill=0;endSize=12;startSize=12;" parent="1" source="xbEn734_akfBzVi41Q-D-113" target="xbEn734_akfBzVi41Q-D-26" edge="1">
          <mxGeometry width="50" height="50" relative="1" as="geometry">
            <mxPoint x="-1210" y="880" as="sourcePoint" />
            <mxPoint x="-1620" y="970" as="targetPoint" />
            <Array as="points">
              <mxPoint x="-950" y="1260" />
              <mxPoint x="-690" y="1260" />
            </Array>
          </mxGeometry>
        </mxCell>
        <mxCell id="xbEn734_akfBzVi41Q-D-139" value="" style="endArrow=none;dashed=1;html=1;rounded=0;exitX=0.5;exitY=1;exitDx=0;exitDy=0;strokeWidth=2;strokeColor=#FFFFFF;entryX=0.5;entryY=1;entryDx=0;entryDy=0;endFill=0;endSize=12;startSize=12;startArrow=classic;startFill=1;" parent="1" source="xbEn734_akfBzVi41Q-D-115" target="h31MPHbTt9oOIjLvigXA-3" edge="1">
          <mxGeometry width="50" height="50" relative="1" as="geometry">
            <mxPoint x="-120" y="795" as="sourcePoint" />
            <mxPoint x="-330" y="850" as="targetPoint" />
            <Array as="points">
              <mxPoint x="130" y="1380" />
              <mxPoint x="-1130" y="1380" />
            </Array>
          </mxGeometry>
        </mxCell>
        <mxCell id="xbEn734_akfBzVi41Q-D-140" value="" style="endArrow=none;dashed=1;html=1;rounded=0;strokeWidth=2;strokeColor=#FFFFFF;entryX=0.5;entryY=1;entryDx=0;entryDy=0;exitX=0.5;exitY=1;exitDx=0;exitDy=0;endFill=0;endSize=12;startSize=12;startArrow=classic;startFill=1;" parent="1" source="xbEn734_akfBzVi41Q-D-117" target="xbEn734_akfBzVi41Q-D-42" edge="1">
          <mxGeometry width="50" height="50" relative="1" as="geometry">
            <mxPoint x="1000" y="870" as="sourcePoint" />
            <mxPoint x="880" y="850" as="targetPoint" />
            <Array as="points">
              <mxPoint x="1320" y="1260" />
              <mxPoint x="1070" y="1260" />
            </Array>
          </mxGeometry>
        </mxCell>
        <mxCell id="xbEn734_akfBzVi41Q-D-141" value="" style="endArrow=none;dashed=1;html=1;rounded=0;strokeWidth=2;strokeColor=#FFFFFF;exitX=0.5;exitY=1;exitDx=0;exitDy=0;entryX=0.5;entryY=1;entryDx=0;entryDy=0;startArrow=classic;startFill=1;endFill=0;endSize=12;startSize=12;" parent="1" source="xbEn734_akfBzVi41Q-D-119" target="xbEn734_akfBzVi41Q-D-53" edge="1">
          <mxGeometry width="50" height="50" relative="1" as="geometry">
            <mxPoint x="2320" y="790" as="sourcePoint" />
            <mxPoint x="2100" y="870" as="targetPoint" />
            <Array as="points">
              <mxPoint x="2490" y="1260" />
              <mxPoint x="2260" y="1260" />
            </Array>
          </mxGeometry>
        </mxCell>
        <mxCell id="xbEn734_akfBzVi41Q-D-142" value="" style="endArrow=none;dashed=1;html=1;rounded=0;strokeWidth=2;strokeColor=#FFFFFF;exitX=0.5;exitY=1;exitDx=0;exitDy=0;endFill=0;endSize=12;startSize=12;entryX=0.5;entryY=1;entryDx=0;entryDy=0;startArrow=classic;startFill=1;" parent="1" source="xbEn734_akfBzVi41Q-D-31" target="h31MPHbTt9oOIjLvigXA-1" edge="1">
          <mxGeometry width="50" height="50" relative="1" as="geometry">
            <mxPoint x="-1100" y="785" as="sourcePoint" />
            <mxPoint x="4490" y="870" as="targetPoint" />
            <Array as="points">
              <mxPoint x="-2080" y="1500" />
              <mxPoint x="3290" y="1500" />
            </Array>
          </mxGeometry>
        </mxCell>
        <mxCell id="xbEn734_akfBzVi41Q-D-144" value="" style="endArrow=classic;dashed=1;html=1;rounded=0;strokeWidth=2;strokeColor=#FFFFFF;exitX=0.5;exitY=1;exitDx=0;exitDy=0;startArrow=none;startFill=0;endFill=1;endSize=12;startSize=12;entryX=0.5;entryY=1;entryDx=0;entryDy=0;" parent="1" source="xbEn734_akfBzVi41Q-D-122" edge="1" target="xbEn734_akfBzVi41Q-D-81">
          <mxGeometry width="50" height="50" relative="1" as="geometry">
            <mxPoint x="4130" y="790" as="sourcePoint" />
            <mxPoint x="3400" y="763" as="targetPoint" />
            <Array as="points">
              <mxPoint x="4650" y="1260" />
              <mxPoint x="4420" y="1260" />
            </Array>
          </mxGeometry>
        </mxCell>
        <mxCell id="xbEn734_akfBzVi41Q-D-147" value="" style="endArrow=none;dashed=1;html=1;rounded=0;strokeWidth=2;strokeColor=#FFFFFF;exitX=0.5;exitY=1;exitDx=0;exitDy=0;entryX=0.5;entryY=1;entryDx=0;entryDy=0;endFill=0;startArrow=classic;startFill=1;endSize=12;startSize=12;" parent="1" source="xbEn734_akfBzVi41Q-D-94" target="xbEn734_akfBzVi41Q-D-132" edge="1">
          <mxGeometry width="50" height="50" relative="1" as="geometry">
            <mxPoint x="5150" y="790" as="sourcePoint" />
            <mxPoint x="4870" y="790" as="targetPoint" />
            <Array as="points">
              <mxPoint x="5260" y="1260" />
              <mxPoint x="5020" y="1260" />
            </Array>
          </mxGeometry>
        </mxCell>
        <mxCell id="xbEn734_akfBzVi41Q-D-148" value="" style="endArrow=none;html=1;rounded=0;exitX=0.5;exitY=0;exitDx=0;exitDy=0;labelBackgroundColor=#FFFFFF;strokeColor=#FFFFFF;strokeWidth=2;entryX=0.5;entryY=1;entryDx=0;entryDy=0;" parent="1" source="xbEn734_akfBzVi41Q-D-48" target="xbEn734_akfBzVi41Q-D-3" edge="1">
          <mxGeometry width="50" height="50" relative="1" as="geometry">
            <mxPoint x="1110" y="690" as="sourcePoint" />
            <mxPoint x="1800" as="targetPoint" />
          </mxGeometry>
        </mxCell>
        <mxCell id="xbEn734_akfBzVi41Q-D-149" value="" style="endArrow=none;html=1;rounded=0;exitX=0.5;exitY=0;exitDx=0;exitDy=0;labelBackgroundColor=#FFFFFF;strokeColor=#FFFFFF;strokeWidth=2;entryX=0.5;entryY=1;entryDx=0;entryDy=0;" parent="1" source="xbEn734_akfBzVi41Q-D-65" target="xbEn734_akfBzVi41Q-D-3" edge="1">
          <mxGeometry width="50" height="50" relative="1" as="geometry">
            <mxPoint x="1575" y="350" as="sourcePoint" />
            <mxPoint x="1680" y="-20" as="targetPoint" />
          </mxGeometry>
        </mxCell>
        <mxCell id="xbEn734_akfBzVi41Q-D-150" value="" style="endArrow=none;html=1;rounded=0;exitX=0.5;exitY=0;exitDx=0;exitDy=0;labelBackgroundColor=#FFFFFF;strokeColor=#FFFFFF;strokeWidth=2;entryX=0.5;entryY=1;entryDx=0;entryDy=0;" parent="1" source="xbEn734_akfBzVi41Q-D-76" target="xbEn734_akfBzVi41Q-D-3" edge="1">
          <mxGeometry width="50" height="50" relative="1" as="geometry">
            <mxPoint x="2705" y="350" as="sourcePoint" />
            <mxPoint x="1630" y="30" as="targetPoint" />
          </mxGeometry>
        </mxCell>
        <mxCell id="xbEn734_akfBzVi41Q-D-151" value="" style="endArrow=none;html=1;rounded=0;exitX=0.5;exitY=0;exitDx=0;exitDy=0;labelBackgroundColor=#FFFFFF;strokeColor=#FFFFFF;strokeWidth=2;entryX=0.5;entryY=1;entryDx=0;entryDy=0;" parent="1" source="xbEn734_akfBzVi41Q-D-121" target="xbEn734_akfBzVi41Q-D-3" edge="1">
          <mxGeometry width="50" height="50" relative="1" as="geometry">
            <mxPoint x="3835" y="350" as="sourcePoint" />
            <mxPoint x="2050" y="-220" as="targetPoint" />
          </mxGeometry>
        </mxCell>
        <mxCell id="xbEn734_akfBzVi41Q-D-152" value="" style="endArrow=none;html=1;rounded=0;exitX=0.5;exitY=0;exitDx=0;exitDy=0;labelBackgroundColor=#FFFFFF;strokeColor=#FFFFFF;strokeWidth=2;entryX=0.5;entryY=1;entryDx=0;entryDy=0;" parent="1" source="xbEn734_akfBzVi41Q-D-89" target="xbEn734_akfBzVi41Q-D-3" edge="1">
          <mxGeometry width="50" height="50" relative="1" as="geometry">
            <mxPoint x="4755" y="350" as="sourcePoint" />
            <mxPoint x="1910" y="-170" as="targetPoint" />
          </mxGeometry>
        </mxCell>
        <mxCell id="xbEn734_akfBzVi41Q-D-153" value="" style="endArrow=none;html=1;rounded=0;exitX=0.5;exitY=0;exitDx=0;exitDy=0;labelBackgroundColor=#FFFFFF;strokeColor=#FFFFFF;strokeWidth=2;entryX=0.5;entryY=1;entryDx=0;entryDy=0;" parent="1" source="xbEn734_akfBzVi41Q-D-37" target="xbEn734_akfBzVi41Q-D-3" edge="1">
          <mxGeometry width="50" height="50" relative="1" as="geometry">
            <mxPoint x="1575" y="350" as="sourcePoint" />
            <mxPoint x="1450" y="50" as="targetPoint" />
          </mxGeometry>
        </mxCell>
        <mxCell id="xbEn734_akfBzVi41Q-D-154" value="" style="endArrow=none;html=1;rounded=0;exitX=0.5;exitY=0;exitDx=0;exitDy=0;labelBackgroundColor=#FFFFFF;strokeColor=#FFFFFF;strokeWidth=2;entryX=0.5;entryY=1;entryDx=0;entryDy=0;" parent="1" source="xbEn734_akfBzVi41Q-D-4" target="xbEn734_akfBzVi41Q-D-3" edge="1">
          <mxGeometry width="50" height="50" relative="1" as="geometry">
            <mxPoint x="365" y="350" as="sourcePoint" />
            <mxPoint x="1370" y="100" as="targetPoint" />
          </mxGeometry>
        </mxCell>
        <mxCell id="xbEn734_akfBzVi41Q-D-155" value="" style="endArrow=none;html=1;rounded=0;exitX=0.5;exitY=0;exitDx=0;exitDy=0;labelBackgroundColor=#FFFFFF;strokeColor=#FFFFFF;strokeWidth=2;entryX=0.5;entryY=1;entryDx=0;entryDy=0;" parent="1" source="xbEn734_akfBzVi41Q-D-5" target="xbEn734_akfBzVi41Q-D-3" edge="1">
          <mxGeometry width="50" height="50" relative="1" as="geometry">
            <mxPoint x="-725" y="350" as="sourcePoint" />
            <mxPoint x="1060" y="-230" as="targetPoint" />
          </mxGeometry>
        </mxCell>
        <mxCell id="xbEn734_akfBzVi41Q-D-156" value="" style="rounded=0;whiteSpace=wrap;html=1;strokeWidth=2;strokeColor=#FFFFFF;fillColor=#000000;" parent="1" vertex="1">
          <mxGeometry x="-1725" y="880" width="60" height="100" as="geometry" />
        </mxCell>
        <mxCell id="xbEn734_akfBzVi41Q-D-157" value="" style="rounded=0;whiteSpace=wrap;html=1;strokeWidth=2;strokeColor=#FFFFFF;fillColor=#000000;" parent="1" vertex="1">
          <mxGeometry x="-1535" y="880" width="60" height="100" as="geometry" />
        </mxCell>
        <mxCell id="xbEn734_akfBzVi41Q-D-158" value="" style="rounded=0;whiteSpace=wrap;html=1;strokeWidth=2;strokeColor=#FFFFFF;fillColor=#000000;" parent="1" vertex="1">
          <mxGeometry x="-1345" y="880" width="60" height="100" as="geometry" />
        </mxCell>
        <mxCell id="xbEn734_akfBzVi41Q-D-159" value="" style="rounded=0;whiteSpace=wrap;html=1;strokeWidth=2;strokeColor=#FFFFFF;fillColor=#000000;" parent="1" vertex="1">
          <mxGeometry x="-345" y="880" width="60" height="100" as="geometry" />
        </mxCell>
        <mxCell id="xbEn734_akfBzVi41Q-D-160" value="" style="rounded=0;whiteSpace=wrap;html=1;strokeWidth=2;strokeColor=#FFFFFF;fillColor=#000000;" parent="1" vertex="1">
          <mxGeometry x="-535" y="880" width="60" height="100" as="geometry" />
        </mxCell>
        <mxCell id="xbEn734_akfBzVi41Q-D-161" value="" style="rounded=0;whiteSpace=wrap;html=1;strokeWidth=2;strokeColor=#FFFFFF;fillColor=#000000;" parent="1" vertex="1">
          <mxGeometry x="-155" y="880" width="60" height="100" as="geometry" />
        </mxCell>
        <mxCell id="xbEn734_akfBzVi41Q-D-162" value="" style="rounded=0;whiteSpace=wrap;html=1;strokeWidth=2;strokeColor=#FFFFFF;fillColor=#000000;" parent="1" vertex="1">
          <mxGeometry x="285" y="880" width="60" height="100" as="geometry" />
        </mxCell>
        <mxCell id="xbEn734_akfBzVi41Q-D-163" value="" style="rounded=0;whiteSpace=wrap;html=1;strokeWidth=2;strokeColor=#FFFFFF;fillColor=#000000;" parent="1" vertex="1">
          <mxGeometry x="475" y="880" width="60" height="100" as="geometry" />
        </mxCell>
        <mxCell id="xbEn734_akfBzVi41Q-D-164" value="" style="rounded=0;whiteSpace=wrap;html=1;strokeWidth=2;strokeColor=#FFFFFF;fillColor=#000000;" parent="1" vertex="1">
          <mxGeometry x="665" y="880" width="60" height="100" as="geometry" />
        </mxCell>
        <mxCell id="xbEn734_akfBzVi41Q-D-165" value="" style="rounded=0;whiteSpace=wrap;html=1;strokeWidth=2;strokeColor=#FFFFFF;fillColor=#000000;" parent="1" vertex="1">
          <mxGeometry x="855" y="880" width="60" height="100" as="geometry" />
        </mxCell>
        <mxCell id="xbEn734_akfBzVi41Q-D-166" value="" style="rounded=0;whiteSpace=wrap;html=1;strokeWidth=2;strokeColor=#FFFFFF;fillColor=#000000;" parent="1" vertex="1">
          <mxGeometry x="1475" y="880" width="60" height="100" as="geometry" />
        </mxCell>
        <mxCell id="xbEn734_akfBzVi41Q-D-167" value="" style="rounded=0;whiteSpace=wrap;html=1;strokeWidth=2;strokeColor=#FFFFFF;fillColor=#000000;" parent="1" vertex="1">
          <mxGeometry x="1665" y="880" width="60" height="100" as="geometry" />
        </mxCell>
        <mxCell id="xbEn734_akfBzVi41Q-D-168" value="" style="rounded=0;whiteSpace=wrap;html=1;strokeWidth=2;strokeColor=#FFFFFF;fillColor=#000000;" parent="1" vertex="1">
          <mxGeometry x="2045" y="880" width="60" height="100" as="geometry" />
        </mxCell>
        <mxCell id="xbEn734_akfBzVi41Q-D-169" value="" style="rounded=0;whiteSpace=wrap;html=1;strokeWidth=2;strokeColor=#FFFFFF;fillColor=#000000;" parent="1" vertex="1">
          <mxGeometry x="1665" y="1280" width="60" height="100" as="geometry" />
        </mxCell>
        <mxCell id="xbEn734_akfBzVi41Q-D-170" value="" style="rounded=0;whiteSpace=wrap;html=1;strokeWidth=2;strokeColor=#FFFFFF;fillColor=#000000;" parent="1" vertex="1">
          <mxGeometry x="1855" y="1280" width="60" height="100" as="geometry" />
        </mxCell>
        <mxCell id="xbEn734_akfBzVi41Q-D-171" value="" style="rounded=0;whiteSpace=wrap;html=1;strokeWidth=2;strokeColor=#FFFFFF;fillColor=#000000;" parent="1" vertex="1">
          <mxGeometry x="2045" y="1280" width="60" height="100" as="geometry" />
        </mxCell>
        <mxCell id="xbEn734_akfBzVi41Q-D-172" value="" style="rounded=0;whiteSpace=wrap;html=1;strokeWidth=2;strokeColor=#FFFFFF;fillColor=#000000;" parent="1" vertex="1">
          <mxGeometry x="2645" y="880" width="60" height="100" as="geometry" />
        </mxCell>
        <mxCell id="xbEn734_akfBzVi41Q-D-173" value="" style="rounded=0;whiteSpace=wrap;html=1;strokeWidth=2;strokeColor=#FFFFFF;fillColor=#000000;" parent="1" vertex="1">
          <mxGeometry x="2835" y="880" width="60" height="100" as="geometry" />
        </mxCell>
        <mxCell id="xbEn734_akfBzVi41Q-D-174" value="" style="rounded=0;whiteSpace=wrap;html=1;strokeWidth=2;strokeColor=#FFFFFF;fillColor=#000000;" parent="1" vertex="1">
          <mxGeometry x="3025" y="880" width="60" height="100" as="geometry" />
        </mxCell>
        <mxCell id="xbEn734_akfBzVi41Q-D-175" value="" style="rounded=0;whiteSpace=wrap;html=1;strokeWidth=2;strokeColor=#FFFFFF;fillColor=#000000;" parent="1" vertex="1">
          <mxGeometry x="3635" y="880" width="60" height="100" as="geometry" />
        </mxCell>
        <mxCell id="xbEn734_akfBzVi41Q-D-193" value="" style="edgeStyle=orthogonalEdgeStyle;rounded=0;orthogonalLoop=1;jettySize=auto;html=1;" parent="1" source="xbEn734_akfBzVi41Q-D-176" target="xbEn734_akfBzVi41Q-D-87" edge="1">
          <mxGeometry relative="1" as="geometry" />
        </mxCell>
        <mxCell id="xbEn734_akfBzVi41Q-D-176" value="" style="rounded=0;whiteSpace=wrap;html=1;strokeWidth=2;strokeColor=#FFFFFF;fillColor=#000000;" parent="1" vertex="1">
          <mxGeometry x="3445" y="880" width="60" height="100" as="geometry" />
        </mxCell>
        <mxCell id="xbEn734_akfBzVi41Q-D-177" value="" style="rounded=0;whiteSpace=wrap;html=1;strokeWidth=2;strokeColor=#FFFFFF;fillColor=#000000;" parent="1" vertex="1">
          <mxGeometry x="3825" y="880" width="60" height="100" as="geometry" />
        </mxCell>
        <mxCell id="xbEn734_akfBzVi41Q-D-178" value="" style="rounded=0;whiteSpace=wrap;html=1;strokeWidth=2;strokeColor=#FFFFFF;fillColor=#000000;" parent="1" vertex="1">
          <mxGeometry x="4015" y="880" width="60" height="100" as="geometry" />
        </mxCell>
        <mxCell id="xbEn734_akfBzVi41Q-D-179" value="" style="rounded=0;whiteSpace=wrap;html=1;strokeWidth=2;strokeColor=#FFFFFF;fillColor=#000000;" parent="1" vertex="1">
          <mxGeometry x="4205" y="880" width="60" height="100" as="geometry" />
        </mxCell>
        <mxCell id="xbEn734_akfBzVi41Q-D-180" value="" style="rounded=0;whiteSpace=wrap;html=1;strokeWidth=2;strokeColor=#FFFFFF;fillColor=#000000;" parent="1" vertex="1">
          <mxGeometry x="4805" y="880" width="60" height="100" as="geometry" />
        </mxCell>
        <mxCell id="xbEn734_akfBzVi41Q-D-181" value="" style="rounded=0;whiteSpace=wrap;html=1;strokeWidth=2;strokeColor=#FFFFFF;fillColor=#000000;" parent="1" vertex="1">
          <mxGeometry x="5415" y="880" width="60" height="100" as="geometry" />
        </mxCell>
        <mxCell id="xbEn734_akfBzVi41Q-D-182" value="" style="rounded=0;whiteSpace=wrap;html=1;strokeWidth=2;strokeColor=#FFFFFF;fillColor=#000000;" parent="1" vertex="1">
          <mxGeometry x="5415" y="1280" width="60" height="100" as="geometry" />
        </mxCell>
        <mxCell id="xbEn734_akfBzVi41Q-D-183" value="" style="rounded=0;whiteSpace=wrap;html=1;strokeWidth=2;strokeColor=#FFFFFF;fillColor=#000000;" parent="1" vertex="1">
          <mxGeometry x="5605" y="1280" width="60" height="100" as="geometry" />
        </mxCell>
        <mxCell id="xbEn734_akfBzVi41Q-D-184" value="" style="endArrow=none;html=1;rounded=0;labelBackgroundColor=#FFFFFF;strokeColor=#FFFFFF;strokeWidth=2;exitX=0.5;exitY=0;exitDx=0;exitDy=0;entryX=0.5;entryY=1;entryDx=0;entryDy=0;" parent="1" source="xbEn734_akfBzVi41Q-D-181" target="xbEn734_akfBzVi41Q-D-104" edge="1">
          <mxGeometry width="50" height="50" relative="1" as="geometry">
            <mxPoint x="5455" y="705" as="sourcePoint" />
            <mxPoint x="5510" y="830" as="targetPoint" />
          </mxGeometry>
        </mxCell>
        <mxCell id="xbEn734_akfBzVi41Q-D-185" value="" style="endArrow=none;html=1;rounded=0;labelBackgroundColor=#FFFFFF;strokeColor=#FFFFFF;strokeWidth=2;exitX=0.5;exitY=0;exitDx=0;exitDy=0;entryX=0.5;entryY=1;entryDx=0;entryDy=0;" parent="1" source="xbEn734_akfBzVi41Q-D-182" target="xbEn734_akfBzVi41Q-D-102" edge="1">
          <mxGeometry width="50" height="50" relative="1" as="geometry">
            <mxPoint x="5355" y="890" as="sourcePoint" />
            <mxPoint x="5520" y="1240" as="targetPoint" />
          </mxGeometry>
        </mxCell>
        <mxCell id="xbEn734_akfBzVi41Q-D-186" value="" style="endArrow=none;html=1;rounded=0;labelBackgroundColor=#FFFFFF;strokeColor=#FFFFFF;strokeWidth=2;exitX=0.5;exitY=0;exitDx=0;exitDy=0;entryX=0.5;entryY=1;entryDx=0;entryDy=0;" parent="1" source="xbEn734_akfBzVi41Q-D-183" target="xbEn734_akfBzVi41Q-D-103" edge="1">
          <mxGeometry width="50" height="50" relative="1" as="geometry">
            <mxPoint x="5455" y="1290" as="sourcePoint" />
            <mxPoint x="5530" y="1250" as="targetPoint" />
          </mxGeometry>
        </mxCell>
        <mxCell id="xbEn734_akfBzVi41Q-D-187" value="" style="endArrow=none;html=1;rounded=0;labelBackgroundColor=#FFFFFF;strokeColor=#FFFFFF;strokeWidth=2;exitX=0.5;exitY=0;exitDx=0;exitDy=0;entryX=0.5;entryY=1;entryDx=0;entryDy=0;" parent="1" source="xbEn734_akfBzVi41Q-D-180" target="xbEn734_akfBzVi41Q-D-128" edge="1">
          <mxGeometry width="50" height="50" relative="1" as="geometry">
            <mxPoint x="4845" y="705" as="sourcePoint" />
            <mxPoint x="4845" y="430" as="targetPoint" />
          </mxGeometry>
        </mxCell>
        <mxCell id="xbEn734_akfBzVi41Q-D-188" value="" style="endArrow=none;html=1;rounded=0;labelBackgroundColor=#FFFFFF;strokeColor=#FFFFFF;strokeWidth=2;exitX=0.5;exitY=0;exitDx=0;exitDy=0;entryX=0.5;entryY=1;entryDx=0;entryDy=0;" parent="1" source="xbEn734_akfBzVi41Q-D-179" target="xbEn734_akfBzVi41Q-D-80" edge="1">
          <mxGeometry width="50" height="50" relative="1" as="geometry">
            <mxPoint x="4245" y="705" as="sourcePoint" />
            <mxPoint x="3765" y="430" as="targetPoint" />
          </mxGeometry>
        </mxCell>
        <mxCell id="xbEn734_akfBzVi41Q-D-189" value="" style="endArrow=none;html=1;rounded=0;labelBackgroundColor=#FFFFFF;strokeColor=#FFFFFF;strokeWidth=2;exitX=0.5;exitY=0;exitDx=0;exitDy=0;entryX=0.5;entryY=1;entryDx=0;entryDy=0;" parent="1" source="xbEn734_akfBzVi41Q-D-178" target="xbEn734_akfBzVi41Q-D-79" edge="1">
          <mxGeometry width="50" height="50" relative="1" as="geometry">
            <mxPoint x="4245" y="890" as="sourcePoint" />
            <mxPoint x="4245" y="785" as="targetPoint" />
          </mxGeometry>
        </mxCell>
        <mxCell id="xbEn734_akfBzVi41Q-D-190" value="" style="endArrow=none;html=1;rounded=0;labelBackgroundColor=#FFFFFF;strokeColor=#FFFFFF;strokeWidth=2;exitX=0.5;exitY=0;exitDx=0;exitDy=0;entryX=0.5;entryY=1;entryDx=0;entryDy=0;" parent="1" source="xbEn734_akfBzVi41Q-D-177" target="xbEn734_akfBzVi41Q-D-78" edge="1">
          <mxGeometry width="50" height="50" relative="1" as="geometry">
            <mxPoint x="4055" y="890" as="sourcePoint" />
            <mxPoint x="3750" y="800" as="targetPoint" />
          </mxGeometry>
        </mxCell>
        <mxCell id="xbEn734_akfBzVi41Q-D-191" value="" style="endArrow=none;html=1;rounded=0;labelBackgroundColor=#FFFFFF;strokeColor=#FFFFFF;strokeWidth=2;exitX=0.5;exitY=0;exitDx=0;exitDy=0;entryX=0.5;entryY=1;entryDx=0;entryDy=0;" parent="1" source="xbEn734_akfBzVi41Q-D-175" target="xbEn734_akfBzVi41Q-D-77" edge="1">
          <mxGeometry width="50" height="50" relative="1" as="geometry">
            <mxPoint x="3865" y="890" as="sourcePoint" />
            <mxPoint x="3760" y="810" as="targetPoint" />
          </mxGeometry>
        </mxCell>
        <mxCell id="xbEn734_akfBzVi41Q-D-192" value="" style="endArrow=none;html=1;rounded=0;labelBackgroundColor=#FFFFFF;strokeColor=#FFFFFF;strokeWidth=2;exitX=0.5;exitY=0;exitDx=0;exitDy=0;entryX=0.5;entryY=1;entryDx=0;entryDy=0;" parent="1" source="xbEn734_akfBzVi41Q-D-176" target="xbEn734_akfBzVi41Q-D-87" edge="1">
          <mxGeometry width="50" height="50" relative="1" as="geometry">
            <mxPoint x="3865" y="890" as="sourcePoint" />
            <mxPoint x="3760" y="810" as="targetPoint" />
          </mxGeometry>
        </mxCell>
        <mxCell id="xbEn734_akfBzVi41Q-D-194" value="" style="endArrow=none;html=1;rounded=0;labelBackgroundColor=#FFFFFF;strokeColor=#FFFFFF;strokeWidth=2;exitX=0.5;exitY=0;exitDx=0;exitDy=0;entryX=0.5;entryY=1;entryDx=0;entryDy=0;" parent="1" source="xbEn734_akfBzVi41Q-D-174" target="xbEn734_akfBzVi41Q-D-68" edge="1">
          <mxGeometry width="50" height="50" relative="1" as="geometry">
            <mxPoint x="3725" y="890" as="sourcePoint" />
            <mxPoint x="3725" y="785" as="targetPoint" />
          </mxGeometry>
        </mxCell>
        <mxCell id="xbEn734_akfBzVi41Q-D-195" value="" style="endArrow=none;html=1;rounded=0;labelBackgroundColor=#FFFFFF;strokeColor=#FFFFFF;strokeWidth=2;exitX=0.5;exitY=0;exitDx=0;exitDy=0;entryX=0.5;entryY=1;entryDx=0;entryDy=0;" parent="1" source="xbEn734_akfBzVi41Q-D-173" target="xbEn734_akfBzVi41Q-D-67" edge="1">
          <mxGeometry width="50" height="50" relative="1" as="geometry">
            <mxPoint x="3065" y="890" as="sourcePoint" />
            <mxPoint x="3065" y="785" as="targetPoint" />
          </mxGeometry>
        </mxCell>
        <mxCell id="xbEn734_akfBzVi41Q-D-196" value="" style="endArrow=none;html=1;rounded=0;labelBackgroundColor=#FFFFFF;strokeColor=#FFFFFF;strokeWidth=2;exitX=0.5;exitY=0;exitDx=0;exitDy=0;entryX=0.5;entryY=1;entryDx=0;entryDy=0;" parent="1" source="xbEn734_akfBzVi41Q-D-172" target="xbEn734_akfBzVi41Q-D-66" edge="1">
          <mxGeometry width="50" height="50" relative="1" as="geometry">
            <mxPoint x="2875" y="890" as="sourcePoint" />
            <mxPoint x="2875" y="785" as="targetPoint" />
          </mxGeometry>
        </mxCell>
        <mxCell id="xbEn734_akfBzVi41Q-D-197" value="" style="endArrow=none;html=1;rounded=0;labelBackgroundColor=#FFFFFF;strokeColor=#FFFFFF;strokeWidth=2;exitX=0.5;exitY=0;exitDx=0;exitDy=0;entryX=0.5;entryY=1;entryDx=0;entryDy=0;" parent="1" source="xbEn734_akfBzVi41Q-D-168" target="xbEn734_akfBzVi41Q-D-51" edge="1">
          <mxGeometry width="50" height="50" relative="1" as="geometry">
            <mxPoint x="2735" y="890" as="sourcePoint" />
            <mxPoint x="2735" y="785" as="targetPoint" />
          </mxGeometry>
        </mxCell>
        <mxCell id="xbEn734_akfBzVi41Q-D-199" value="" style="endArrow=none;html=1;rounded=0;labelBackgroundColor=#FFFFFF;strokeColor=#FFFFFF;strokeWidth=2;exitX=0.5;exitY=0;exitDx=0;exitDy=0;entryX=0.5;entryY=1;entryDx=0;entryDy=0;" parent="1" source="xbEn734_akfBzVi41Q-D-167" target="xbEn734_akfBzVi41Q-D-50" edge="1">
          <mxGeometry width="50" height="50" relative="1" as="geometry">
            <mxPoint x="2085" y="890" as="sourcePoint" />
            <mxPoint x="2085" y="785" as="targetPoint" />
          </mxGeometry>
        </mxCell>
        <mxCell id="xbEn734_akfBzVi41Q-D-200" value="" style="endArrow=none;html=1;rounded=0;labelBackgroundColor=#FFFFFF;strokeColor=#FFFFFF;strokeWidth=2;exitX=0.5;exitY=0;exitDx=0;exitDy=0;entryX=0.5;entryY=1;entryDx=0;entryDy=0;" parent="1" source="xbEn734_akfBzVi41Q-D-166" target="xbEn734_akfBzVi41Q-D-49" edge="1">
          <mxGeometry width="50" height="50" relative="1" as="geometry">
            <mxPoint x="1705" y="890" as="sourcePoint" />
            <mxPoint x="1705" y="785" as="targetPoint" />
          </mxGeometry>
        </mxCell>
        <mxCell id="xbEn734_akfBzVi41Q-D-201" value="" style="endArrow=none;html=1;rounded=0;labelBackgroundColor=#FFFFFF;strokeColor=#FFFFFF;strokeWidth=2;exitX=0.5;exitY=0;exitDx=0;exitDy=0;entryX=0.5;entryY=1;entryDx=0;entryDy=0;" parent="1" source="xbEn734_akfBzVi41Q-D-169" target="xbEn734_akfBzVi41Q-D-59" edge="1">
          <mxGeometry width="50" height="50" relative="1" as="geometry">
            <mxPoint x="1515" y="890" as="sourcePoint" />
            <mxPoint x="1515" y="785" as="targetPoint" />
          </mxGeometry>
        </mxCell>
        <mxCell id="xbEn734_akfBzVi41Q-D-202" value="" style="endArrow=none;html=1;rounded=0;labelBackgroundColor=#FFFFFF;strokeColor=#FFFFFF;strokeWidth=2;exitX=0.5;exitY=0;exitDx=0;exitDy=0;entryX=0.5;entryY=1;entryDx=0;entryDy=0;" parent="1" source="xbEn734_akfBzVi41Q-D-170" target="xbEn734_akfBzVi41Q-D-60" edge="1">
          <mxGeometry width="50" height="50" relative="1" as="geometry">
            <mxPoint x="1705" y="1290" as="sourcePoint" />
            <mxPoint x="1705" y="1190" as="targetPoint" />
          </mxGeometry>
        </mxCell>
        <mxCell id="xbEn734_akfBzVi41Q-D-203" value="" style="endArrow=none;html=1;rounded=0;labelBackgroundColor=#FFFFFF;strokeColor=#FFFFFF;strokeWidth=2;exitX=0.5;exitY=0;exitDx=0;exitDy=0;entryX=0.5;entryY=1;entryDx=0;entryDy=0;" parent="1" source="xbEn734_akfBzVi41Q-D-171" target="xbEn734_akfBzVi41Q-D-61" edge="1">
          <mxGeometry width="50" height="50" relative="1" as="geometry">
            <mxPoint x="1895" y="1290" as="sourcePoint" />
            <mxPoint x="1895" y="1190" as="targetPoint" />
          </mxGeometry>
        </mxCell>
        <mxCell id="xbEn734_akfBzVi41Q-D-204" value="" style="endArrow=none;html=1;rounded=0;labelBackgroundColor=#FFFFFF;strokeColor=#FFFFFF;strokeWidth=2;exitX=0.5;exitY=0;exitDx=0;exitDy=0;entryX=0.5;entryY=1;entryDx=0;entryDy=0;" parent="1" source="xbEn734_akfBzVi41Q-D-165" target="xbEn734_akfBzVi41Q-D-41" edge="1">
          <mxGeometry width="50" height="50" relative="1" as="geometry">
            <mxPoint x="1545" y="890" as="sourcePoint" />
            <mxPoint x="1545" y="785" as="targetPoint" />
          </mxGeometry>
        </mxCell>
        <mxCell id="xbEn734_akfBzVi41Q-D-205" value="" style="endArrow=none;html=1;rounded=0;labelBackgroundColor=#FFFFFF;strokeColor=#FFFFFF;strokeWidth=2;exitX=0.5;exitY=0;exitDx=0;exitDy=0;entryX=0.5;entryY=1;entryDx=0;entryDy=0;" parent="1" source="xbEn734_akfBzVi41Q-D-164" target="xbEn734_akfBzVi41Q-D-40" edge="1">
          <mxGeometry width="50" height="50" relative="1" as="geometry">
            <mxPoint x="895" y="890" as="sourcePoint" />
            <mxPoint x="895" y="790" as="targetPoint" />
          </mxGeometry>
        </mxCell>
        <mxCell id="xbEn734_akfBzVi41Q-D-206" value="" style="endArrow=none;html=1;rounded=0;labelBackgroundColor=#FFFFFF;strokeColor=#FFFFFF;strokeWidth=2;exitX=0.5;exitY=0;exitDx=0;exitDy=0;entryX=0.5;entryY=1;entryDx=0;entryDy=0;" parent="1" source="xbEn734_akfBzVi41Q-D-163" target="xbEn734_akfBzVi41Q-D-39" edge="1">
          <mxGeometry width="50" height="50" relative="1" as="geometry">
            <mxPoint x="705" y="890" as="sourcePoint" />
            <mxPoint x="705" y="790" as="targetPoint" />
          </mxGeometry>
        </mxCell>
        <mxCell id="xbEn734_akfBzVi41Q-D-207" value="" style="endArrow=none;html=1;rounded=0;labelBackgroundColor=#FFFFFF;strokeColor=#FFFFFF;strokeWidth=2;exitX=0.5;exitY=0;exitDx=0;exitDy=0;entryX=0.5;entryY=1;entryDx=0;entryDy=0;" parent="1" source="xbEn734_akfBzVi41Q-D-162" target="xbEn734_akfBzVi41Q-D-38" edge="1">
          <mxGeometry width="50" height="50" relative="1" as="geometry">
            <mxPoint x="515" y="890" as="sourcePoint" />
            <mxPoint x="515" y="790" as="targetPoint" />
          </mxGeometry>
        </mxCell>
        <mxCell id="xbEn734_akfBzVi41Q-D-208" value="" style="endArrow=none;html=1;rounded=0;labelBackgroundColor=#FFFFFF;strokeColor=#FFFFFF;strokeWidth=2;exitX=0.5;exitY=0;exitDx=0;exitDy=0;entryX=0.5;entryY=1;entryDx=0;entryDy=0;" parent="1" source="xbEn734_akfBzVi41Q-D-161" target="xbEn734_akfBzVi41Q-D-20" edge="1">
          <mxGeometry width="50" height="50" relative="1" as="geometry">
            <mxPoint x="495" y="890" as="sourcePoint" />
            <mxPoint x="495" y="790" as="targetPoint" />
          </mxGeometry>
        </mxCell>
        <mxCell id="xbEn734_akfBzVi41Q-D-209" value="" style="endArrow=none;html=1;rounded=0;labelBackgroundColor=#FFFFFF;strokeColor=#FFFFFF;strokeWidth=2;exitX=0.5;exitY=0;exitDx=0;exitDy=0;entryX=0.5;entryY=1;entryDx=0;entryDy=0;" parent="1" source="xbEn734_akfBzVi41Q-D-159" target="xbEn734_akfBzVi41Q-D-19" edge="1">
          <mxGeometry width="50" height="50" relative="1" as="geometry">
            <mxPoint x="-115" y="890" as="sourcePoint" />
            <mxPoint x="-115" y="790" as="targetPoint" />
          </mxGeometry>
        </mxCell>
        <mxCell id="xbEn734_akfBzVi41Q-D-210" value="" style="endArrow=none;html=1;rounded=0;labelBackgroundColor=#FFFFFF;strokeColor=#FFFFFF;strokeWidth=2;exitX=0.5;exitY=0;exitDx=0;exitDy=0;entryX=0.5;entryY=1;entryDx=0;entryDy=0;" parent="1" source="xbEn734_akfBzVi41Q-D-160" target="xbEn734_akfBzVi41Q-D-16" edge="1">
          <mxGeometry width="50" height="50" relative="1" as="geometry">
            <mxPoint x="-305" y="890" as="sourcePoint" />
            <mxPoint x="-305" y="790" as="targetPoint" />
          </mxGeometry>
        </mxCell>
        <mxCell id="xbEn734_akfBzVi41Q-D-211" value="" style="endArrow=none;html=1;rounded=0;labelBackgroundColor=#FFFFFF;strokeColor=#FFFFFF;strokeWidth=2;exitX=0.5;exitY=0;exitDx=0;exitDy=0;entryX=0.5;entryY=1;entryDx=0;entryDy=0;" parent="1" source="xbEn734_akfBzVi41Q-D-158" target="xbEn734_akfBzVi41Q-D-30" edge="1">
          <mxGeometry width="50" height="50" relative="1" as="geometry">
            <mxPoint x="-695" y="890" as="sourcePoint" />
            <mxPoint x="-695" y="790" as="targetPoint" />
          </mxGeometry>
        </mxCell>
        <mxCell id="xbEn734_akfBzVi41Q-D-212" value="" style="endArrow=none;html=1;rounded=0;labelBackgroundColor=#FFFFFF;strokeColor=#FFFFFF;strokeWidth=2;exitX=0.5;exitY=0;exitDx=0;exitDy=0;entryX=0.5;entryY=1;entryDx=0;entryDy=0;" parent="1" source="xbEn734_akfBzVi41Q-D-157" target="xbEn734_akfBzVi41Q-D-29" edge="1">
          <mxGeometry width="50" height="50" relative="1" as="geometry">
            <mxPoint x="-1305" y="890" as="sourcePoint" />
            <mxPoint x="-1305" y="790" as="targetPoint" />
          </mxGeometry>
        </mxCell>
        <mxCell id="xbEn734_akfBzVi41Q-D-213" value="" style="endArrow=none;html=1;rounded=0;labelBackgroundColor=#FFFFFF;strokeColor=#FFFFFF;strokeWidth=2;exitX=0.5;exitY=0;exitDx=0;exitDy=0;entryX=0.5;entryY=1;entryDx=0;entryDy=0;" parent="1" source="xbEn734_akfBzVi41Q-D-156" target="xbEn734_akfBzVi41Q-D-28" edge="1">
          <mxGeometry width="50" height="50" relative="1" as="geometry">
            <mxPoint x="-1495" y="890" as="sourcePoint" />
            <mxPoint x="-1495" y="790" as="targetPoint" />
          </mxGeometry>
        </mxCell>
        <mxCell id="xbEn734_akfBzVi41Q-D-214" value="" style="endArrow=none;html=1;rounded=0;labelBackgroundColor=#FFFFFF;strokeColor=#FFFFFF;strokeWidth=2;exitX=0.5;exitY=0;exitDx=0;exitDy=0;entryX=0.5;entryY=1;entryDx=0;entryDy=0;" parent="1" source="xbEn734_akfBzVi41Q-D-108" target="xbEn734_akfBzVi41Q-D-27" edge="1">
          <mxGeometry width="50" height="50" relative="1" as="geometry">
            <mxPoint x="-1685" y="890" as="sourcePoint" />
            <mxPoint x="-1685" y="790" as="targetPoint" />
          </mxGeometry>
        </mxCell>
        <mxCell id="RZbT_XQyjg015P3b093B-1" value="SHouseNumber" style="ellipse;whiteSpace=wrap;html=1;fillColor=#000000;strokeColor=#FFFFFF;fontColor=#FFFFFF;fontSize=20;strokeWidth=2;" parent="1" vertex="1">
          <mxGeometry x="5740" y="1100" width="170" height="80" as="geometry" />
        </mxCell>
        <mxCell id="RZbT_XQyjg015P3b093B-2" value="" style="rounded=0;whiteSpace=wrap;html=1;strokeWidth=2;strokeColor=#FFFFFF;fillColor=#000000;" parent="1" vertex="1">
          <mxGeometry x="5795" y="1280" width="60" height="100" as="geometry" />
        </mxCell>
        <mxCell id="RZbT_XQyjg015P3b093B-3" value="" style="endArrow=none;html=1;rounded=0;labelBackgroundColor=#FFFFFF;strokeColor=#FFFFFF;strokeWidth=2;exitX=0.5;exitY=0;exitDx=0;exitDy=0;entryX=0.5;entryY=1;entryDx=0;entryDy=0;" parent="1" source="RZbT_XQyjg015P3b093B-2" target="RZbT_XQyjg015P3b093B-1" edge="1">
          <mxGeometry width="50" height="50" relative="1" as="geometry">
            <mxPoint x="5645" y="1290" as="sourcePoint" />
            <mxPoint x="5645" y="1190" as="targetPoint" />
          </mxGeometry>
        </mxCell>
        <mxCell id="RZbT_XQyjg015P3b093B-5" value="" style="endArrow=none;html=1;rounded=0;labelBackgroundColor=#FFFFFF;strokeColor=#FFFFFF;strokeWidth=2;exitX=0.5;exitY=0;exitDx=0;exitDy=0;entryX=0.5;entryY=1;entryDx=0;entryDy=0;" parent="1" source="RZbT_XQyjg015P3b093B-1" target="xbEn734_akfBzVi41Q-D-100" edge="1">
          <mxGeometry width="50" height="50" relative="1" as="geometry">
            <mxPoint x="5745" y="1110" as="sourcePoint" />
            <mxPoint x="5645" y="785" as="targetPoint" />
          </mxGeometry>
        </mxCell>
        <mxCell id="h31MPHbTt9oOIjLvigXA-1" value="BSeries" style="rhombus;whiteSpace=wrap;html=1;strokeWidth=2;strokeColor=#FFFFFF;fillColor=#000000;fontSize=20;fontColor=#FFFFFF;" vertex="1" parent="1">
          <mxGeometry x="3210" y="680" width="160" height="110" as="geometry" />
        </mxCell>
        <mxCell id="h31MPHbTt9oOIjLvigXA-2" value="" style="endArrow=none;html=1;rounded=0;labelBackgroundColor=#FFFFFF;strokeColor=#FFFFFF;strokeWidth=2;exitX=0.5;exitY=0;exitDx=0;exitDy=0;entryX=0.5;entryY=1;entryDx=0;entryDy=0;" edge="1" parent="1" source="h31MPHbTt9oOIjLvigXA-1" target="xbEn734_akfBzVi41Q-D-76">
          <mxGeometry width="50" height="50" relative="1" as="geometry">
            <mxPoint x="4245" y="705" as="sourcePoint" />
            <mxPoint x="3765" y="430" as="targetPoint" />
          </mxGeometry>
        </mxCell>
        <mxCell id="h31MPHbTt9oOIjLvigXA-3" value="SMagazine" style="rhombus;whiteSpace=wrap;html=1;strokeWidth=2;strokeColor=#FFFFFF;fillColor=#000000;fontSize=20;fontColor=#FFFFFF;" vertex="1" parent="1">
          <mxGeometry x="-1210" y="680" width="160" height="110" as="geometry" />
        </mxCell>
        <mxCell id="h31MPHbTt9oOIjLvigXA-4" value="" style="endArrow=none;html=1;rounded=0;exitX=0.5;exitY=0;exitDx=0;exitDy=0;labelBackgroundColor=#FFFFFF;strokeColor=#FFFFFF;strokeWidth=2;entryX=0.5;entryY=1;entryDx=0;entryDy=0;" edge="1" parent="1" source="h31MPHbTt9oOIjLvigXA-3" target="xbEn734_akfBzVi41Q-D-5">
          <mxGeometry width="50" height="50" relative="1" as="geometry">
            <mxPoint x="-1120" y="695" as="sourcePoint" />
            <mxPoint x="-1330" y="460" as="targetPoint" />
          </mxGeometry>
        </mxCell>
      </root>
    </mxGraphModel>
  </diagram>
</mxfile>
